<mxfile host="Electron" modified="2023-12-20T07:32:41.048Z" agent="Mozilla/5.0 (Windows NT 10.0; Win64; x64) AppleWebKit/537.36 (KHTML, like Gecko) draw.io/22.1.11 Chrome/114.0.5735.289 Electron/25.9.8 Safari/537.36" etag="hvzkBfExHoHYaKcR_wQN" version="22.1.11" type="device">
  <diagram name="第 1 页" id="gPhUNZ1bTZrJb2d_DS2C">
    <mxGraphModel dx="1098" dy="828" grid="1" gridSize="10" guides="1" tooltips="1" connect="1" arrows="1" fold="1" page="1" pageScale="1" pageWidth="827" pageHeight="1169" math="0" shadow="0">
      <root>
        <mxCell id="0" />
        <mxCell id="1" parent="0" />
        <mxCell id="eMuH17bolF1-peheNX8k-1" value="ICharacter" style="swimlane;fontStyle=1;align=center;verticalAlign=top;childLayout=stackLayout;horizontal=1;startSize=26;horizontalStack=0;resizeParent=1;resizeParentMax=0;resizeLast=0;collapsible=1;marginBottom=0;whiteSpace=wrap;html=1;" vertex="1" parent="1">
          <mxGeometry x="120" y="270" width="160" height="266" as="geometry" />
        </mxCell>
        <mxCell id="eMuH17bolF1-peheNX8k-2" value="#gameObject" style="text;strokeColor=none;fillColor=none;align=left;verticalAlign=top;spacingLeft=4;spacingRight=4;overflow=hidden;rotatable=0;points=[[0,0.5],[1,0.5]];portConstraint=eastwest;whiteSpace=wrap;html=1;" vertex="1" parent="eMuH17bolF1-peheNX8k-1">
          <mxGeometry y="26" width="160" height="26" as="geometry" />
        </mxCell>
        <mxCell id="eMuH17bolF1-peheNX8k-5" value="#navMeshAgent" style="text;html=1;strokeColor=none;fillColor=none;align=left;verticalAlign=middle;whiteSpace=wrap;rounded=0;spacingLeft=4;spacingRight=4;" vertex="1" parent="eMuH17bolF1-peheNX8k-1">
          <mxGeometry y="52" width="160" height="30" as="geometry" />
        </mxCell>
        <mxCell id="eMuH17bolF1-peheNX8k-6" value="#audioSource" style="text;html=1;strokeColor=none;fillColor=none;align=left;verticalAlign=middle;whiteSpace=wrap;rounded=0;spacingLeft=4;spacingRight=4;" vertex="1" parent="eMuH17bolF1-peheNX8k-1">
          <mxGeometry y="82" width="160" height="30" as="geometry" />
        </mxCell>
        <mxCell id="eMuH17bolF1-peheNX8k-7" value="#iconSpriteName" style="text;html=1;strokeColor=none;fillColor=none;align=left;verticalAlign=middle;whiteSpace=wrap;rounded=0;spacingLeft=4;spacingRight=4;" vertex="1" parent="eMuH17bolF1-peheNX8k-1">
          <mxGeometry y="112" width="160" height="30" as="geometry" />
        </mxCell>
        <mxCell id="eMuH17bolF1-peheNX8k-8" value="#..." style="text;html=1;strokeColor=none;fillColor=none;align=left;verticalAlign=middle;whiteSpace=wrap;rounded=0;spacingLeft=4;spacingRight=4;" vertex="1" parent="eMuH17bolF1-peheNX8k-1">
          <mxGeometry y="142" width="160" height="30" as="geometry" />
        </mxCell>
        <mxCell id="eMuH17bolF1-peheNX8k-3" value="" style="line;strokeWidth=1;fillColor=none;align=left;verticalAlign=middle;spacingTop=-1;spacingLeft=3;spacingRight=3;rotatable=0;labelPosition=right;points=[];portConstraint=eastwest;strokeColor=inherit;" vertex="1" parent="eMuH17bolF1-peheNX8k-1">
          <mxGeometry y="172" width="160" height="8" as="geometry" />
        </mxCell>
        <mxCell id="eMuH17bolF1-peheNX8k-4" value="+SetGameObject()" style="text;strokeColor=none;fillColor=none;align=left;verticalAlign=top;spacingLeft=4;spacingRight=4;overflow=hidden;rotatable=0;points=[[0,0.5],[1,0.5]];portConstraint=eastwest;whiteSpace=wrap;html=1;" vertex="1" parent="eMuH17bolF1-peheNX8k-1">
          <mxGeometry y="180" width="160" height="26" as="geometry" />
        </mxCell>
        <mxCell id="eMuH17bolF1-peheNX8k-12" value="+Release()" style="text;html=1;strokeColor=none;fillColor=none;align=left;verticalAlign=middle;whiteSpace=wrap;rounded=0;spacingLeft=4;spacingRight=4;" vertex="1" parent="eMuH17bolF1-peheNX8k-1">
          <mxGeometry y="206" width="160" height="30" as="geometry" />
        </mxCell>
        <mxCell id="eMuH17bolF1-peheNX8k-11" value="+...()" style="text;html=1;strokeColor=none;fillColor=none;align=left;verticalAlign=middle;whiteSpace=wrap;rounded=0;spacingLeft=4;spacingRight=4;" vertex="1" parent="eMuH17bolF1-peheNX8k-1">
          <mxGeometry y="236" width="160" height="30" as="geometry" />
        </mxCell>
        <mxCell id="eMuH17bolF1-peheNX8k-31" style="edgeStyle=none;rounded=0;orthogonalLoop=1;jettySize=auto;html=1;exitX=0;exitY=0.5;exitDx=0;exitDy=0;entryX=1;entryY=0.75;entryDx=0;entryDy=0;endArrow=diamondThin;endFill=1;" edge="1" parent="1" source="eMuH17bolF1-peheNX8k-13" target="eMuH17bolF1-peheNX8k-7">
          <mxGeometry relative="1" as="geometry" />
        </mxCell>
        <mxCell id="eMuH17bolF1-peheNX8k-13" value="IWeapon" style="swimlane;fontStyle=1;align=center;verticalAlign=top;childLayout=stackLayout;horizontal=1;startSize=26;horizontalStack=0;resizeParent=1;resizeParentMax=0;resizeLast=0;collapsible=1;marginBottom=0;whiteSpace=wrap;html=1;" vertex="1" parent="1">
          <mxGeometry x="360" y="387" width="160" height="34" as="geometry" />
        </mxCell>
        <mxCell id="eMuH17bolF1-peheNX8k-15" value="" style="line;strokeWidth=1;fillColor=none;align=left;verticalAlign=middle;spacingTop=-1;spacingLeft=3;spacingRight=3;rotatable=0;labelPosition=right;points=[];portConstraint=eastwest;strokeColor=inherit;" vertex="1" parent="eMuH17bolF1-peheNX8k-13">
          <mxGeometry y="26" width="160" height="8" as="geometry" />
        </mxCell>
        <mxCell id="eMuH17bolF1-peheNX8k-34" style="edgeStyle=none;rounded=0;orthogonalLoop=1;jettySize=auto;html=1;exitX=0;exitY=0;exitDx=0;exitDy=0;entryX=1;entryY=0.75;entryDx=0;entryDy=0;endArrow=diamondThin;endFill=1;" edge="1" parent="1" source="eMuH17bolF1-peheNX8k-17" target="eMuH17bolF1-peheNX8k-8">
          <mxGeometry relative="1" as="geometry" />
        </mxCell>
        <mxCell id="eMuH17bolF1-peheNX8k-17" value="ICharacterAI" style="swimlane;fontStyle=1;align=center;verticalAlign=top;childLayout=stackLayout;horizontal=1;startSize=26;horizontalStack=0;resizeParent=1;resizeParentMax=0;resizeLast=0;collapsible=1;marginBottom=0;whiteSpace=wrap;html=1;" vertex="1" parent="1">
          <mxGeometry x="360" y="450" width="160" height="34" as="geometry" />
        </mxCell>
        <mxCell id="eMuH17bolF1-peheNX8k-18" value="" style="line;strokeWidth=1;fillColor=none;align=left;verticalAlign=middle;spacingTop=-1;spacingLeft=3;spacingRight=3;rotatable=0;labelPosition=right;points=[];portConstraint=eastwest;strokeColor=inherit;" vertex="1" parent="eMuH17bolF1-peheNX8k-17">
          <mxGeometry y="26" width="160" height="8" as="geometry" />
        </mxCell>
        <mxCell id="eMuH17bolF1-peheNX8k-32" style="edgeStyle=none;rounded=0;orthogonalLoop=1;jettySize=auto;html=1;exitX=0;exitY=1;exitDx=0;exitDy=0;entryX=1;entryY=0.75;entryDx=0;entryDy=0;endArrow=diamondThin;endFill=1;" edge="1" parent="1" source="eMuH17bolF1-peheNX8k-19" target="eMuH17bolF1-peheNX8k-6">
          <mxGeometry relative="1" as="geometry" />
        </mxCell>
        <mxCell id="eMuH17bolF1-peheNX8k-19" value="ICharacterAttr" style="swimlane;fontStyle=1;align=center;verticalAlign=top;childLayout=stackLayout;horizontal=1;startSize=26;horizontalStack=0;resizeParent=1;resizeParentMax=0;resizeLast=0;collapsible=1;marginBottom=0;whiteSpace=wrap;html=1;" vertex="1" parent="1">
          <mxGeometry x="360" y="320" width="160" height="34" as="geometry" />
        </mxCell>
        <mxCell id="eMuH17bolF1-peheNX8k-20" value="" style="line;strokeWidth=1;fillColor=none;align=left;verticalAlign=middle;spacingTop=-1;spacingLeft=3;spacingRight=3;rotatable=0;labelPosition=right;points=[];portConstraint=eastwest;strokeColor=inherit;" vertex="1" parent="eMuH17bolF1-peheNX8k-19">
          <mxGeometry y="26" width="160" height="8" as="geometry" />
        </mxCell>
        <mxCell id="eMuH17bolF1-peheNX8k-35" style="edgeStyle=none;rounded=0;orthogonalLoop=1;jettySize=auto;html=1;exitX=0;exitY=0.5;exitDx=0;exitDy=0;entryX=1;entryY=0.5;entryDx=0;entryDy=0;endArrow=diamondThin;endFill=1;" edge="1" parent="1" source="eMuH17bolF1-peheNX8k-21" target="eMuH17bolF1-peheNX8k-19">
          <mxGeometry relative="1" as="geometry" />
        </mxCell>
        <mxCell id="eMuH17bolF1-peheNX8k-21" value="IAttrStrategy" style="swimlane;fontStyle=1;align=center;verticalAlign=top;childLayout=stackLayout;horizontal=1;startSize=26;horizontalStack=0;resizeParent=1;resizeParentMax=0;resizeLast=0;collapsible=1;marginBottom=0;whiteSpace=wrap;html=1;" vertex="1" parent="1">
          <mxGeometry x="570" y="320" width="160" height="34" as="geometry" />
        </mxCell>
        <mxCell id="eMuH17bolF1-peheNX8k-22" value="" style="line;strokeWidth=1;fillColor=none;align=left;verticalAlign=middle;spacingTop=-1;spacingLeft=3;spacingRight=3;rotatable=0;labelPosition=right;points=[];portConstraint=eastwest;strokeColor=inherit;" vertex="1" parent="eMuH17bolF1-peheNX8k-21">
          <mxGeometry y="26" width="160" height="8" as="geometry" />
        </mxCell>
        <mxCell id="eMuH17bolF1-peheNX8k-23" value="ISoldier" style="swimlane;fontStyle=1;align=center;verticalAlign=top;childLayout=stackLayout;horizontal=1;startSize=26;horizontalStack=0;resizeParent=1;resizeParentMax=0;resizeLast=0;collapsible=1;marginBottom=0;whiteSpace=wrap;html=1;" vertex="1" parent="1">
          <mxGeometry y="600" width="160" height="34" as="geometry" />
        </mxCell>
        <mxCell id="eMuH17bolF1-peheNX8k-24" value="" style="line;strokeWidth=1;fillColor=none;align=left;verticalAlign=middle;spacingTop=-1;spacingLeft=3;spacingRight=3;rotatable=0;labelPosition=right;points=[];portConstraint=eastwest;strokeColor=inherit;" vertex="1" parent="eMuH17bolF1-peheNX8k-23">
          <mxGeometry y="26" width="160" height="8" as="geometry" />
        </mxCell>
        <mxCell id="eMuH17bolF1-peheNX8k-29" style="edgeStyle=none;rounded=0;orthogonalLoop=1;jettySize=auto;html=1;exitX=0.5;exitY=0;exitDx=0;exitDy=0;entryX=0.75;entryY=1;entryDx=0;entryDy=0;endArrow=block;endFill=0;" edge="1" parent="1" source="eMuH17bolF1-peheNX8k-25" target="eMuH17bolF1-peheNX8k-11">
          <mxGeometry relative="1" as="geometry" />
        </mxCell>
        <mxCell id="eMuH17bolF1-peheNX8k-25" value="IEnemy" style="swimlane;fontStyle=1;align=center;verticalAlign=top;childLayout=stackLayout;horizontal=1;startSize=26;horizontalStack=0;resizeParent=1;resizeParentMax=0;resizeLast=0;collapsible=1;marginBottom=0;whiteSpace=wrap;html=1;" vertex="1" parent="1">
          <mxGeometry x="240" y="600" width="160" height="34" as="geometry" />
        </mxCell>
        <mxCell id="eMuH17bolF1-peheNX8k-26" value="" style="line;strokeWidth=1;fillColor=none;align=left;verticalAlign=middle;spacingTop=-1;spacingLeft=3;spacingRight=3;rotatable=0;labelPosition=right;points=[];portConstraint=eastwest;strokeColor=inherit;" vertex="1" parent="eMuH17bolF1-peheNX8k-25">
          <mxGeometry y="26" width="160" height="8" as="geometry" />
        </mxCell>
        <mxCell id="eMuH17bolF1-peheNX8k-28" style="edgeStyle=none;rounded=0;orthogonalLoop=1;jettySize=auto;html=1;exitX=0.5;exitY=0;exitDx=0;exitDy=0;entryX=0.294;entryY=1.033;entryDx=0;entryDy=0;entryPerimeter=0;endArrow=block;endFill=0;" edge="1" parent="1" source="eMuH17bolF1-peheNX8k-23" target="eMuH17bolF1-peheNX8k-11">
          <mxGeometry relative="1" as="geometry" />
        </mxCell>
      </root>
    </mxGraphModel>
  </diagram>
</mxfile>
